<svg width="11" height="9" viewBox="0 0 11 9" fill="none" xmlns="http://www.w3.org/2000/svg">
<path d="M0.528814 0.685466L0.53031 0.682513C0.582337 0.582798 0.703921 0.5 0.859471 0.5H10.1418C10.2991 0.5 10.4201 0.583867 10.4712 0.684949L10.4712 0.684953L10.4726 0.687659C10.5184 0.777 10.5094 0.880167 10.4256 0.968496L10.4184 0.976122L10.4115 0.984044L6.49876 5.47554L6.37577 5.61673V5.80397V8.3574C6.37577 8.39406 6.35359 8.44665 6.2853 8.47827L6.2837 8.47902C6.21002 8.51347 6.12167 8.5038 6.06338 8.46278L6.06272 8.46232L4.68757 7.498L4.68757 7.498L4.68518 7.49634C4.6414 7.46602 4.62546 7.42645 4.62546 7.39308V5.80397V5.61606L4.5017 5.47466L0.570533 0.983176C0.57053 0.983173 0.570528 0.98317 0.570525 0.983167C0.491961 0.893394 0.480628 0.780554 0.528814 0.685466Z" fill="#888888" stroke="#888888"/>
</svg>
