<svg width="17" height="17" viewBox="0 0 17 17" fill="none" xmlns="http://www.w3.org/2000/svg">
<path d="M16.9734 12.8498L16.2015 16.1967C16.093 16.6698 15.6772 17.0009 15.1901 17.0009C6.81328 17.0002 0 10.1869 0 1.80977C0 1.32301 0.331002 0.906641 0.80418 0.798731L4.15105 0.0267579C4.63848 -0.0861991 5.13652 0.166809 5.33906 0.628399L6.88367 4.23094C7.06423 4.65527 6.94244 5.14967 6.58551 5.44119L4.79785 6.87656C5.92609 9.17488 7.79477 11.0436 10.0938 12.1725L11.5573 10.3861C11.8458 10.0282 12.3439 9.90436 12.7683 10.0881L16.3708 11.6324C16.8041 11.8604 17.0863 12.365 16.9734 12.8498Z" fill="#888888"/>
</svg>
