<svg width="12" height="12" viewBox="0 0 12 12" fill="none" xmlns="http://www.w3.org/2000/svg">
<path d="M11.7259 10.3992L8.92041 7.59377C9.55838 6.64666 9.87314 5.4633 9.70463 4.20237C9.41728 2.0576 7.65947 0.31221 5.51259 0.0404053C2.32064 -0.363493 -0.363421 2.32057 0.0405012 5.51252C0.312376 7.66033 2.058 9.41955 4.203 9.70549C5.46394 9.87398 6.64753 9.55934 7.59441 8.92127L10.3999 11.7267C10.766 12.0928 11.3596 12.0928 11.7257 11.7267C12.0915 11.3602 12.0915 10.7649 11.7259 10.3992ZM1.854 4.87502C1.854 3.2208 3.19978 1.87502 4.854 1.87502C6.50822 1.87502 7.854 3.2208 7.854 4.87502C7.854 6.52924 6.50822 7.87502 4.854 7.87502C3.19978 7.87502 1.854 6.52971 1.854 4.87502Z" fill="#DFDFDF"/>
</svg>
